<?xml version="1.0" encoding="iso-8859-1"?>
<!-- Generator: Adobe Illustrator 19.0.0, SVG Export Plug-In . SVG Version: 6.00 Build 0)  -->
<svg version="1.1" id="Capa_1" xmlns="http://www.w3.org/2000/svg" xmlns:xlink="http://www.w3.org/1999/xlink" x="0px" y="0px"
	 viewBox="0 0 511.999 511.999" style="enable-background:new 0 0 511.999 511.999;" xml:space="preserve">
<g>
	<g>
		<path d="M496.81,153.41H318.973v-11.478c0-8.389-6.801-15.19-15.19-15.19h-79.594c-10.256,0-19.919,2.581-28.383,7.118
			l-17.687-17.687c-5.931-5.932-15.55-5.932-21.482,0c-5.932,5.932-5.932,15.55,0,21.482l16.838,16.838
			c-3.971,6.166-6.86,13.091-8.369,20.515c-33.219,1.763-62.037,10.251-85.802,25.325c-22.833,14.483-41.082,35.047-54.24,61.121
			C8.434,294.412,0,336.008,0,385.085c0,8.389,6.801,15.19,15.19,15.19h104.246c8.389,0,15.19-6.801,15.19-15.19V306.9
			c0-16.68,2.382-29.162,29.272-32.337v16.341c0,34.588,28.139,62.727,62.727,62.727h2.798c34.587,0,62.726-28.139,62.726-62.727
			v-17.139h11.634c8.389,0,15.19-6.801,15.19-15.19v-11.478h177.836c8.389,0,15.19-6.801,15.19-15.19v-63.309
			C512,160.211,505.199,153.41,496.81,153.41z M163.899,244.048c-17.713,1.624-30.841,6.323-40.626,14.468
			c-12.802,10.656-19.026,26.483-19.026,48.384v62.995H30.679c1.509-37.604,8.725-69.424,21.509-94.757
			c21.553-42.709,59.101-66.074,111.711-69.619V244.048z M261.769,290.905c0,17.836-14.511,32.347-32.346,32.347h-2.798
			c-17.836,0-32.347-14.511-32.347-32.347v-17.139h18.555v13.675c0,8.389,6.801,15.19,15.19,15.19c8.389,0,15.19-6.801,15.19-15.19
			v-13.675h18.555V290.905z M288.593,168.6v18.864h-43.067c-8.389,0-15.19,6.801-15.19,15.19c0,8.389,6.801,15.19,15.19,15.19
			h43.067v14.065v11.478h-11.634h-82.68v-56.353c0-16.493,13.418-29.911,29.911-29.911h64.403V168.6z M318.973,216.718v-32.929
			h162.646v32.929H318.973z"/>
	</g>
</g>
<g>
</g>
<g>
</g>
<g>
</g>
<g>
</g>
<g>
</g>
<g>
</g>
<g>
</g>
<g>
</g>
<g>
</g>
<g>
</g>
<g>
</g>
<g>
</g>
<g>
</g>
<g>
</g>
<g>
</g>
</svg>
