<?xml version="1.0" encoding="iso-8859-1"?>
<!-- Generator: Adobe Illustrator 19.0.0, SVG Export Plug-In . SVG Version: 6.00 Build 0)  -->
<svg version="1.1" id="Capa_1" xmlns="http://www.w3.org/2000/svg" xmlns:xlink="http://www.w3.org/1999/xlink" x="0px" y="0px"
	 viewBox="0 0 512 512" style="enable-background:new 0 0 512 512;" xml:space="preserve">
<g>
	<g>
		<path d="M380.873,277.53c-19.118,0-34.672,15.519-34.672,34.593s15.554,34.592,34.672,34.592
			c19.118,0,34.672-15.518,34.672-34.592C415.545,293.049,399.991,277.53,380.873,277.53z M380.873,331.715
			c-10.847,0-19.672-8.789-19.672-19.592c0-10.804,8.825-19.593,19.672-19.593s19.672,8.789,19.672,19.593
			C400.545,322.926,391.72,331.715,380.873,331.715z"/>
	</g>
</g>
<g>
	<g>
		<path d="M354.53,265.229c-1.4-1.399-3.33-2.199-5.301-2.199c-1.979,0-3.91,0.8-5.31,2.199c-1.4,1.391-2.19,3.33-2.19,5.301
			c0,1.979,0.79,3.909,2.19,5.3c1.399,1.399,3.33,2.2,5.31,2.2c1.971,0,3.901-0.801,5.301-2.2c1.39-1.391,2.189-3.32,2.189-5.3
			C356.719,268.559,355.919,266.63,354.53,265.229z"/>
	</g>
</g>
<g>
	<g>
		<path d="M331.04,244.04c-1.4-1.4-3.33-2.2-5.3-2.2c-1.98,0-3.91,0.8-5.311,2.2c-1.39,1.39-2.2,3.319-2.2,5.3
			c0,1.97,0.811,3.91,2.2,5.3c1.4,1.4,3.33,2.2,5.311,2.2c1.97,0,3.899-0.8,5.3-2.2c1.4-1.39,2.2-3.33,2.2-5.3
			C333.24,247.37,332.439,245.43,331.04,244.04z"/>
	</g>
</g>
<g>
	<g>
		<path d="M389.2,252.961c-1.391-1.4-3.32-2.2-5.301-2.2c-1.97,0-3.909,0.8-5.3,2.2c-1.399,1.398-2.2,3.329-2.2,5.309
			c0,1.971,0.801,3.9,2.2,5.3c1.391,1.391,3.33,2.2,5.3,2.2c1.98,0,3.91-0.81,5.301-2.2c1.399-1.399,2.199-3.329,2.199-5.3
			C391.399,256.291,390.599,254.36,389.2,252.961z"/>
	</g>
</g>
<g>
	<g>
		<path d="M360.12,237.349c-1.391-1.399-3.33-2.2-5.301-2.2c-1.979,0-3.909,0.801-5.31,2.2c-1.39,1.391-2.19,3.33-2.19,5.3
			c0,1.971,0.801,3.91,2.19,5.301c1.401,1.4,3.331,2.199,5.31,2.199c1.971,0,3.9-0.8,5.301-2.199c1.399-1.4,2.199-3.33,2.199-5.301
			C362.319,240.679,361.519,238.74,360.12,237.349z"/>
	</g>
</g>
<g>
	<g>
		<path d="M331.04,210.58c-1.4-1.4-3.33-2.2-5.3-2.2c-1.98,0-3.91,0.8-5.311,2.2c-1.39,1.399-2.2,3.33-2.2,5.3
			c0,1.98,0.811,3.91,2.2,5.31c1.4,1.391,3.33,2.19,5.311,2.19c1.97,0,3.899-0.8,5.3-2.19c1.4-1.4,2.2-3.33,2.2-5.31
			C333.24,213.91,332.439,211.98,331.04,210.58z"/>
	</g>
</g>
<g>
	<g>
		<path d="M272.372,317.69h-32.395c-4.142,0-7.5,3.358-7.5,7.5c0,4.143,3.358,7.5,7.5,7.5h32.395c4.143,0,7.5-3.357,7.5-7.5
			C279.872,321.048,276.515,317.69,272.372,317.69z"/>
	</g>
</g>
<g>
	<g>
		<path d="M272.372,345.954h-32.395c-4.142,0-7.5,3.357-7.5,7.5s3.358,7.5,7.5,7.5h32.395c4.143,0,7.5-3.357,7.5-7.5
			S276.515,345.954,272.372,345.954z"/>
	</g>
</g>
<g>
	<g>
		<path d="M499.5,266.93h-50.997V71.216c0-6.893-5.607-12.5-12.5-12.5H293.039c-6.893,0-12.5,5.607-12.5,12.5V230.21h-27.06v-14.697
			h3.674c6.893,0,12.5-5.607,12.5-12.5v-34.326c0-6.893-5.607-12.5-12.5-12.5H119.129c-6.893,0-12.5,5.607-12.5,12.5v34.326
			c0,6.893,5.607,12.5,12.5,12.5h3.669v14.697H89.595c-15.301,0-27.748,12.421-27.748,27.687v46.14H38.132
			c-6.893,0-12.5,5.607-12.5,12.5v24.57H17.5c-9.649,0-17.5,7.851-17.5,17.5v126.291c0,9.65,7.851,17.5,17.5,17.5h137.642
			c9.649,0,17.5-7.85,17.5-17.5v-10.891h114.04c15.301,0,27.749-12.421,27.749-27.689v-34.706h115.331v78.285
			c0,6.893,5.607,12.5,12.5,12.5h45.866c6.893,0,12.5-5.607,12.5-12.5V309.566c6.365-0.572,11.372-5.931,11.372-12.442V279.43
			C512,272.537,506.393,266.93,499.5,266.93z M121.629,200.513v-29.326h133.024v29.326H231c-4.143,0-7.5,3.357-7.5,7.5
			s3.357,7.5,7.5,7.5h7.48v14.697H137.798v-14.697H191c4.143,0,7.5-3.357,7.5-7.5s-3.357-7.5-7.5-7.5H121.629z M40.632,319.037
			h91.378v22.07H40.632V319.037z M15,391.715h29.415v54.984H15V391.715z M157.642,484.898c0,1.356-1.145,2.5-2.5,2.5H17.5
			c-1.355,0-2.5-1.145-2.5-2.5v-23.199h44.415h98.227V484.898z M157.642,376.714H137c-4.143,0-7.5,3.357-7.5,7.5s3.357,7.5,7.5,7.5
			h20.642v54.984H59.415v-54.984H97c4.143,0,7.5-3.357,7.5-7.5s-3.357-7.5-7.5-7.5H59.415H15v-18.107c0-1.355,1.145-2.5,2.5-2.5
			h137.642c1.355,0,2.5,1.145,2.5,2.5V376.714z M286.682,459.008h-114.04V447.09h126.75
			C298.988,453.727,293.45,459.008,286.682,459.008z M299.431,387.677h-89.753v-98.054h89.753V387.677z M299.431,274.622H206.23
			c-6.37,0-11.552,5.176-11.552,11.538v104.978c0,6.362,5.182,11.538,11.552,11.538h93.201v29.413H172.642v-73.482
			c0-9.649-7.851-17.5-17.5-17.5h-8.132v-24.57c0-6.893-5.607-12.5-12.5-12.5H76.847v-46.14c0-6.996,5.719-12.687,12.748-12.687
			h197.087c7.03,0,12.749,5.691,12.749,12.687V274.622z M429.762,396.613H314.431v-13.732h115.331V396.613z M429.762,309.566v58.314
			H314.431V257.897c0-12.177-7.923-22.535-18.892-26.232v-43.068H375c4.143,0,7.5-3.357,7.5-7.5s-3.357-7.5-7.5-7.5h-79.461V73.716
			h137.964v99.881H420c-4.143,0-7.5,3.357-7.5,7.5s3.357,7.5,7.5,7.5h13.503v78.333h-2.612c-6.893,0-12.5,5.607-12.5,12.5v17.694
			C418.391,303.636,423.397,308.994,429.762,309.566z M485.628,487.398h-40.866v-32.87l40.866-40.744V487.398z M485.628,392.603
			l-40.866,40.744v-30.206l40.866-40.744V392.603z M485.628,341.215l-40.866,40.744v-72.335h40.866V341.215z M497,294.624h-63.609
			V281.93H497V294.624z"/>
	</g>
</g>
<g>
	<g>
		<path d="M238.952,99.8h-27.76c-12.336,0-22.372,10.034-22.372,22.367c0,12.334,10.036,22.368,22.372,22.368h27.76
			c12.336,0,22.372-10.034,22.372-22.368C261.324,109.834,251.288,99.8,238.952,99.8z M238.952,129.535h-27.76
			c-4.065,0-7.372-3.306-7.372-7.368s3.307-7.367,7.372-7.367h27.76c4.066,0,7.372,3.304,7.372,7.367
			S243.017,129.535,238.952,129.535z"/>
	</g>
</g>
<g>
	<g>
		<path d="M203.116,54.908c-4.226-4.224-9.844-6.55-15.818-6.55c-5.976,0-11.594,2.326-15.818,6.551l-19.63,19.624
			c-4.226,4.225-6.553,9.842-6.553,15.817c0,5.975,2.327,11.593,6.553,15.816c4.225,4.225,9.842,6.551,15.818,6.551
			c5.976,0,11.593-2.326,15.818-6.551l19.63-19.624c4.226-4.225,6.553-9.842,6.553-15.816S207.342,59.134,203.116,54.908z
			 M192.511,75.934l-19.63,19.625c-1.393,1.392-3.244,2.158-5.213,2.158s-3.82-0.767-5.213-2.158
			c-1.392-1.392-2.158-3.241-2.158-5.209c0-1.968,0.767-3.818,2.158-5.209l19.63-19.625c1.392-1.392,3.243-2.158,5.213-2.158
			c1.97,0,3.821,0.767,5.212,2.158c1.393,1.392,2.159,3.242,2.159,5.21C194.669,72.694,193.902,74.542,192.511,75.934z"/>
	</g>
</g>
<g>
	<g>
		<path d="M261.512,35.778l-19.63-19.626c-4.226-4.224-9.844-6.55-15.818-6.55c-5.975,0-11.593,2.326-15.818,6.551
			c-4.226,4.225-6.553,9.842-6.553,15.817c-0.001,5.975,2.326,11.592,6.552,15.815l19.631,19.625
			c4.225,4.225,9.842,6.551,15.817,6.551c5.975,0,11.593-2.326,15.819-6.55c4.226-4.225,6.553-9.843,6.553-15.817
			C268.065,45.618,265.738,40.001,261.512,35.778z M250.909,56.802c-1.394,1.393-3.245,2.159-5.215,2.159
			c-1.969,0-3.82-0.767-5.212-2.158l-19.631-19.625c-1.392-1.392-2.157-3.24-2.157-5.208c-0.001-1.968,0.766-3.819,2.158-5.21
			c1.392-1.392,3.243-2.158,5.213-2.158c1.97,0,3.821,0.767,5.214,2.158l19.63,19.626c1.392,1.391,2.157,3.24,2.157,5.208
			S252.299,55.411,250.909,56.802z"/>
	</g>
</g>
<g>
</g>
<g>
</g>
<g>
</g>
<g>
</g>
<g>
</g>
<g>
</g>
<g>
</g>
<g>
</g>
<g>
</g>
<g>
</g>
<g>
</g>
<g>
</g>
<g>
</g>
<g>
</g>
<g>
</g>
</svg>
